<?xml version="1.0" encoding="iso-8859-1"?>
<!-- Generator: Adobe Illustrator 19.0.0, SVG Export Plug-In . SVG Version: 6.00 Build 0)  -->
<svg version="1.1" id="Capa_1" xmlns="http://www.w3.org/2000/svg" xmlns:xlink="http://www.w3.org/1999/xlink" x="0px" y="0px"
	 viewBox="0 0 512 512" style="enable-background:new 0 0 512 512;" xml:space="preserve">
<path style="fill:#F0F1F1;" d="M399.568,62.013c-10.078-0.053-19.831,1.307-29.071,3.894c-12.415,3.476-25.686,0.463-35.802-7.53
	C313.055,41.28,285.721,31.072,256,31.072s-57.055,10.208-78.695,27.305c-10.116,7.992-23.387,11.005-35.802,7.53
	c-9.24-2.587-18.992-3.947-29.071-3.894C56.171,62.31,8.287,109.767,7.51,166.023c-0.756,54.803,40.279,100.179,93.27,106.292
	c6.947,0.801,12.222,6.619,12.222,13.613v111.637h285.995V285.928c0-6.993,5.275-12.811,12.222-13.613
	c52.991-6.113,94.026-51.489,93.27-106.292C503.713,109.767,455.829,62.31,399.568,62.013z"/>
<path style="fill:#8DB5EA;" d="M398.998,397.565H113.002v63c0,11.247,9.117,20.364,20.364,20.364h245.267
	c11.247,0,20.364-9.117,20.364-20.364L398.998,397.565L398.998,397.565z"/>
<rect x="113" y="431.75" style="fill:#C3E9F1;" width="286" height="15"/>
<path style="fill:#F18290;" d="M351.291,355.387h-38.144c-5.236,0-9.481,4.245-9.481,9.481v32.696h57.106v-32.696
	C360.772,359.632,356.527,355.387,351.291,355.387z"/>
<rect x="303.67" y="383.35" style="opacity:0.05;enable-background:new    ;" width="57.11" height="14.215"/>
<path style="opacity:0.1;enable-background:new    ;" d="M442.514,71.471L442.514,71.471c-13.128-5.997-27.671-9.378-42.946-9.458
	c-10.078-0.053-19.83,1.307-29.07,3.894c-10.559,2.956-21.729,1.204-31.059-4.298c14.874,10.28,22.741,17.287,29.517,25.491
	c4.144,5.017,11.598,5.631,16.6,1.469C398.787,77.562,422.052,70.265,442.514,71.471z"/>
<path style="opacity:0.1;enable-background:new    ;" d="M140.784,218.533c-49.282-52.694-19.22-125.719,21.57-152.603
	c-6.754,1.83-13.935,1.913-20.851-0.023c-8.876-2.485-18.225-3.838-27.881-3.894C55.973,61.681,8.306,108.377,7.51,166.022
	c-0.757,54.804,40.279,100.18,93.27,106.293c6.947,0.801,12.222,6.619,12.222,13.612v174.637c0,11.247,9.117,20.364,20.364,20.364
	h89.428c-47.524-49.065-62.112-162.411-65.316-222.87C156.699,243.338,150.853,229.299,140.784,218.533z"/>
<g>
	<ellipse style="fill:#F18290;" cx="174.39" cy="190.03" rx="30.11" ry="23.979"/>
	<ellipse style="fill:#F18290;" cx="337.61" cy="190.03" rx="30.11" ry="23.979"/>
</g>
<path style="fill:#5D6671;" d="M256,193.426L256,193.426c-12.049,0-21.816-9.767-21.816-21.816v-15.861
	c0-3.289,2.666-5.955,5.955-5.955h31.721c3.289,0,5.955,2.666,5.955,5.955v15.861C277.816,183.658,268.049,193.426,256,193.426z"/>
<path d="M105.503,340.857c0,4.143,3.358,7.5,7.5,7.5s7.5-3.357,7.5-7.5v-54.929c0-10.768-8.109-19.823-18.863-21.063
	c-23.943-2.763-45.974-14.272-62.035-32.409c-16.198-18.293-24.933-41.849-24.595-66.329c0.719-52.095,45.351-96.339,97.462-96.614
	c9.152-0.019,18.264,1.168,27.008,3.615c14.449,4.048,30.326,0.731,42.474-8.866c21.272-16.806,46.877-25.69,74.046-25.69
	s52.774,8.884,74.046,25.689c12.147,9.598,28.023,12.91,42.473,8.867c8.745-2.449,17.816-3.676,27.009-3.616
	c21.245,0.112,42.432,7.717,59.657,21.411c3.242,2.576,7.961,2.037,10.538-1.204c2.578-3.242,2.039-7.96-1.204-10.538
	c-19.846-15.777-44.32-24.538-68.912-24.669c-10.55-0.05-21.045,1.347-31.133,4.171c-9.843,2.759-20.732,0.442-29.13-6.191
	c-23.946-18.92-52.767-28.92-83.345-28.92s-59.398,10-83.345,28.92c-8.396,6.634-19.286,8.951-29.13,6.191
	c-10.087-2.824-20.558-4.234-31.132-4.171c-29.188,0.154-57.069,11.943-78.508,33.194c-21.44,21.254-33.47,49.03-33.873,78.214
	c-0.389,28.224,9.684,55.385,28.364,76.48c18.516,20.909,43.924,34.179,71.546,37.365c3.182,0.367,5.581,3.017,5.581,6.162
	L105.503,340.857L105.503,340.857z M296.166,271.488v60.991c0,4.143,3.358,7.5,7.5,7.5s7.5-3.357,7.5-7.5v-60.991
	c0-4.143-3.358-7.5-7.5-7.5S296.166,267.346,296.166,271.488z M325.073,148.796v12.925c0,4.143,3.358,7.5,7.5,7.5s7.5-3.357,7.5-7.5
	v-12.925c0-4.143-3.358-7.5-7.5-7.5S325.073,144.653,325.073,148.796z M171.927,148.796v12.925c0,4.143,3.358,7.5,7.5,7.5
	s7.5-3.357,7.5-7.5v-12.925c0-4.143-3.358-7.5-7.5-7.5S171.927,144.653,171.927,148.796z M240.139,142.294
	c-7.419,0-13.455,6.036-13.455,13.455v15.86c0,16.165,13.151,29.316,29.316,29.316s29.316-13.151,29.316-29.316v-15.86
	c0-7.419-6.036-13.455-13.456-13.455H240.139z M270.316,171.61c0,7.895-6.422,14.316-14.316,14.316s-14.316-6.422-14.316-14.316
	v-14.316h28.632V171.61z M511.989,165.92c-0.289-20.897-6.663-41.416-18.433-59.34c-2.273-3.462-6.924-4.428-10.386-2.151
	c-3.462,2.273-4.426,6.923-2.152,10.386c10.2,15.532,15.723,33.275,15.972,51.312c0.337,24.48-8.397,48.036-24.596,66.329
	c-16.061,18.137-38.092,29.646-62.034,32.409c-10.753,1.239-18.863,10.294-18.863,21.063v104.137h-23.226v-25.196
	c0-9.363-7.618-16.98-16.982-16.98h-38.143c-9.363,0-16.981,7.617-16.981,16.98v25.196H120.503v-13.589c0-4.143-3.358-7.5-7.5-7.5
	s-7.5,3.357-7.5,7.5v21.079c0,0.003,0,0.007,0,0.01c0,0.003,0,0.006,0,0.01v62.99c0,15.364,12.5,27.863,27.864,27.863h245.268
	c15.364,0,27.864-12.499,27.864-27.863V285.928c0-3.146,2.399-5.795,5.581-6.162c27.622-3.186,53.03-16.456,71.546-37.365
	C502.305,221.305,512.379,194.144,511.989,165.92z M311.166,364.868c0-1.092,0.889-1.98,1.981-1.98h38.143
	c1.093,0,1.982,0.889,1.982,1.98v25.196h-42.106V364.868z M391.498,460.565c0,7.093-5.771,12.863-12.864,12.863H133.366
	c-7.093,0-12.864-5.771-12.864-12.863v-55.5h270.996V460.565z M200.834,271.488v60.991c0,4.143,3.358,7.5,7.5,7.5s7.5-3.357,7.5-7.5
	v-60.991c0-4.143-3.358-7.5-7.5-7.5S200.834,267.346,200.834,271.488z"/>
<g>
</g>
<g>
</g>
<g>
</g>
<g>
</g>
<g>
</g>
<g>
</g>
<g>
</g>
<g>
</g>
<g>
</g>
<g>
</g>
<g>
</g>
<g>
</g>
<g>
</g>
<g>
</g>
<g>
</g>
</svg>
